<?xml version="1.0" encoding="UTF-8" standalone="no"?>
<!-- Created with Inkscape (http://www.inkscape.org/) -->

<svg
   width="1024"
   height="1024"
   viewBox="0 0 286.07132 286.07132"
   version="1.1"
   id="svg1"
   xml:space="preserve"
   inkscape:version="1.3.1 (91b66b0783, 2023-11-16)"
   sodipodi:docname="LOGO-opt.svg"
   inkscape:export-filename="LOGO-32.png"
   inkscape:export-xdpi="3"
   inkscape:export-ydpi="3"
   xmlns:inkscape="http://www.inkscape.org/namespaces/inkscape"
   xmlns:sodipodi="http://sodipodi.sourceforge.net/DTD/sodipodi-0.dtd"
   xmlns:xlink="http://www.w3.org/1999/xlink"
   xmlns="http://www.w3.org/2000/svg"
   xmlns:svg="http://www.w3.org/2000/svg"><sodipodi:namedview
     id="namedview1"
     pagecolor="#ffffff"
     bordercolor="#000000"
     borderopacity="0.25"
     inkscape:showpageshadow="2"
     inkscape:pageopacity="0.0"
     inkscape:pagecheckerboard="true"
     inkscape:deskcolor="#d1d1d1"
     inkscape:document-units="mm"
     inkscape:zoom="0.49953305"
     inkscape:cx="752.70296"
     inkscape:cy="711.66463"
     inkscape:window-width="1920"
     inkscape:window-height="1000"
     inkscape:window-x="-11"
     inkscape:window-y="-11"
     inkscape:window-maximized="1"
     inkscape:current-layer="layer1" /><defs
     id="defs1"><linearGradient
       id="linearGradient2"
       inkscape:collect="always"><stop
         style="stop-color:#8d3a27;stop-opacity:1;"
         offset="0"
         id="stop2" /><stop
         style="stop-color:#7a381a;stop-opacity:1;"
         offset="1"
         id="stop3" /></linearGradient><radialGradient
       inkscape:collect="always"
       xlink:href="#linearGradient2"
       id="radialGradient3"
       cx="149.34851"
       cy="141.70715"
       fx="149.34851"
       fy="141.70715"
       r="94.135948"
       gradientTransform="matrix(1,0,0,1.409258,-4.4698641,-57.994793)"
       gradientUnits="userSpaceOnUse" /></defs><g
     inkscape:label="图层 1"
     inkscape:groupmode="layer"
     id="layer1"><path
       style="fill:url(#radialGradient3);stroke-width:0.279367"
       d="M 89.648007,22.540835 C 124.99252,1.701107 182.59171,4.4025634 211.44762,34.799886 c 28.85591,30.397323 26.87672,78.738814 27.28628,115.472344 0.40956,36.73353 1.86253,95.27616 -9.88632,111.12236 -11.74886,15.84621 -48.7755,13.85435 -78.29975,11.07269 -29.52425,-2.78166 -57.248193,2.08199 -69.599796,-5.53634 C 68.596432,259.3126 66.955525,247.73199 61.175373,222.64018 55.395221,197.54837 48.781391,145.83437 51.289044,120.61323 53.796697,95.392093 54.303514,43.380563 89.648007,22.540835 Z"
       id="path2"
       sodipodi:nodetypes="zzzzzzzzz" /><path
       style="display:inline;fill:#fdf5f3;fill-opacity:1;stroke:none"
       d="m 85.663359,207.31535 c 17.602881,-0.44235 24.047831,-22.02269 28.424101,-36.37434 2.58814,-8.48759 3.1899,-20.16769 14.79486,-15.56314 18.73164,7.43223 8.42834,36.92505 4.42309,49.82882 -1.46524,4.72057 -2.57607,9.78415 -5.79398,13.68116 -3.8892,4.70995 -9.58746,6.6933 -14.96267,9.18202 -5.37581,2.48897 -22.470062,7.18972 -20.613138,15.09101 4.500197,19.14851 29.877808,6.5643 36.602878,-3.16559 12.08323,-17.48209 22.40426,-33.96093 22.98258,-55.87517 0.2052,-7.77558 -4.51638,-14.38513 -3.65231,-22.1409 4.74168,0.77852 9.18159,2.82696 13.70627,4.38231 4.19463,1.44191 9.54955,2.37967 12.84154,5.5469 4.21896,4.05905 3.10843,11.63427 2.93935,16.95617 -0.52444,16.50686 -13.76247,34.00502 -11.03641,50.08061 5.15848,-2.00007 5.08094,-6.73679 7.42693,-11.07045 5.79484,-10.70462 9.93668,-20.0696 9.96756,-32.68419 0.0139,-5.6661 -2.41791,-15.23817 2.54652,-19.57509 5.71282,-4.99072 9.92856,14.63727 10.12655,17.9936 0.7245,12.28153 6.04165,23.99033 6.28419,36.37433 0.18976,9.68916 -3.62601,18.80261 -6.30338,27.93971 16.92856,-14.48209 10.72059,-36.96744 7.21101,-56.40658 -2.32834,-12.89632 0.16239,-28.86736 -5.35416,-41.11544 -7.79115,-17.29824 -34.66773,-27.81836 -52.46463,-27.0432 -7.26786,0.31656 -13.87866,3.56512 -21.08657,4.20911 -12.16838,1.0872 -27.829438,1.96424 -40.064509,0.49827 -4.32721,-0.51847 -10.123641,-2.85048 -10.967006,-7.7185 -1.712999,-9.88769 20.938548,-15.95545 26.277322,-21.8104 C 114.90148,92.105638 120.34108,73.072477 115.28816,51.274713 114.357,47.257772 107.14113,27.991435 101.31777,30.718394 97.369745,32.567169 98.581701,48.806799 96.531139,53.38337 90.49801,66.848534 85.544093,81.320697 79.086998,94.481352 74.258557,104.32254 67.577677,114.03387 65.502164,125.07772 c -3.245343,17.26857 9.293523,21.21941 22.797017,23.5045 4.415371,0.74718 12.519549,0.5604 14.281419,5.5571 1.9124,5.42363 -0.91384,11.223 -2.786533,16.27453 -4.464342,12.04234 -13.30246,23.92706 -14.130708,36.9015 M 207.9655,105.04547 l 2.63582,-1.05433 -1.58149,-1.05433 1.05433,-2.63582 h 1.05433 l 1.05433,2.10866 h 0.52716 V 88.176214 C 210.29847,79.79231 207.36507,68.520875 201.3193,61.982512 191.5571,51.424924 170.85401,48.04744 157.35773,46.085552 c -4.82632,-0.701572 -26.25879,-4.291158 -27.90891,1.052913 -2.9152,9.441192 14.93952,4.765537 18.90452,7.130843 7.09779,4.234174 10.80793,16.162682 11.0806,23.890784 0.23256,6.591533 2.11655,14.916668 -2.40011,20.516808 -2.5336,3.14138 -6.67139,4.45416 -9.07444,7.61367 -1.68225,2.21181 -3.4543,7.89323 -0.96361,10.15362 2.50289,2.27147 9.93397,-1.15143 12.4671,-2.36781 12.40094,-5.95478 13.69688,-22.885879 13.70952,-34.861959 0.003,-2.943597 -1.01911,-10.625527 2.83993,-11.701799 2.99892,-0.836388 6.3873,2.711916 8.75794,4.068985 10.48927,6.004522 15.15096,15.301986 14.9205,27.665058 -0.0716,3.842325 -5.24804,7.006615 -3.32275,10.892645 3.23374,6.52706 17.71782,3.78435 11.59748,-5.09384 m -3.16298,-23.722392 -0.52717,-3.69015 c 2.35688,0.747342 2.03538,2.058705 0.52717,3.69015 z"
       id="path1" /></g></svg>
