<svg width="1024" height="1024" version="1.1" viewBox="0 0 270.93 270.93" xmlns="http://www.w3.org/2000/svg">
 <g>
  <path d="m163.25 251.38c-11.155-1.6034-26.743-6.8612-32.573-9.0558-5.83-2.1946-31.187-7.7088-47.131-8.8549-12.01-0.86325-30.505 0.55063-36.091 1.5241-12.222 2.13-29.113 8.8825-39.499 11.662-0.32196-8.9039-5.5016-16.644-5.6356-30.618 9.6654-2.8425 30.585 0.78288 28.989-6.2841-1.5958-7.067-3.8269-14.523-6.4339-21.553-4.2932-11.576-12.12-16.26-15.109-33.818 1.3724 4.0714 4.0828 9.3837 11.192 13.053 11.546 5.9583 19.565 12.798 25.953 22.229 4.6932 6.9283 7.3993 15.65 8.0931 23.764 8.5432 1.189 29.994 6.7541 29.131-5.9888-0.74059-10.936 5.3382-17.584 10.787-26.663 7.0919-11.817 14.784-24.341 20.747-37.239 4.775-10.33 9.8662-17.435 11.954-31.978-10.006 4.6041-27.802 25.628-31.935 31.612-4.1337 5.9837-7.8697 9.6719-10.704 13.455-2.2098-7.0792-3.9944-10.238-3.3126-15.466 0.82587-6.3325 4.8802-12.689 8.6829-17.078 11.814-13.636 22.977-27.871 33.31-42.661 15.028-20.684 21.04-39.165 37.711-59.197 2.8228-3.2307 7.763-10.178 13.185-4.479 1.9212 2.0194 6.4731 6.649 6.7319 15.95-3.7141 2.7677-7.8262 5.6938-10.487 7.4539-10.925 7.2253-17.918 18.243-25.783 28.248-9.0529 11.516-22.954 33.844-14.937 29.486 7.3096-3.9739 25.085-16.129 32.598-19.543 15.202-6.9097 22.826-6.1752 23.275 5.5669 0.50902 13.321-9.8342 25.312-18.999 35.169-10.016 10.773-18.153 11.489-20.823 7.97-8.7634 5.3104-13.442 19.715-19.031 30.229-4.8943 9.2065-7.2484 19.685-12.622 28.62-5.0754 8.4395-8.4175 19.642-18.289 23.203-10.845-4.3137 1.7174 12.358 6.3167 3.1736 9.007 2.6977 19.635 6.8152 29.881 7.8901 13.247 1.3898 26.623-1.0415 39.91-1.9611 17.914-1.2398 36.335-3.8137 53.656-4.7932 14.873-0.84108 31.18-4.7129 40.606 9.5401 7.0878 8.8916-5.9072 11.348-11.976 13.942-6.4765 2.7689-17.016 6.0146-25.8 7.9868-13.499 3.0308-27.283 4.9744-41.091 5.8533-8.1331 0.51773-16.38 0.80857-24.446-0.35091zm-18.136-132.08c9.1256-8.318 17.999-13.402 22.178-27.965 1.0139-3.5334-11.165 0.71333-17.408 7.0777-6.9738 7.1092-12.641 27.502-4.7694 20.888zm-10.58 92.72c-13.399-5.8322-12.764-21.679-9.7951-33.929 2.5149-10.377 6.9781-15.503 10.996-29.738 5.5968 5.2651 3.8504 25.509 0.50345 35.286-7.4228 21.681 28.579 5.7135 37.324-3.2006 6.0865-6.2047 5.9085-20.121 1.7277-26.018-4.4526-6.2801-28.789-12.97-9.6404-20.987 8.5309-2.6544 8.7002-7.5428 1.1097-9.7159 5.0735-3.3952 12.872-3.8944 19.444-3.487 3.2305 0.20025 6.5653 1.1076 9.2728 2.8813 3.706 2.4278 6.2147 4.0283 8.6853 10.061 1.492 3.643-6.829 6.5684-11.129 8.2552-4.8216 1.8916-10.284 2.1305-15.445 1.698-5.9284-0.49682-11.758-3.6265-17.169-4.8759-0.93533 9.3954 22.188 12.311 30.266 16.789 11.483 5.7446 18.14 17.331 20.661 27.816 2.5214 10.485-7.5589 17.645-19.448 18.059-10.384 0.36205-20.516 4.2851-29.254 9.2572-8.4282 4.7961-18.946 5.8373-28.109 1.8487zm-120.11-70.447c5.1137-10.027 14.513-23.77 6.5127-33.928-6.7156-8.5276-2.9725-8.8316 5.6581-5.8677 13.049 4.4811 12.912 16.223 1.0227 26.275-4.4355 3.7501-10.436 11.155-13.193 13.521zm74.528-86.014c5.1176-12.824 13.305-23.983 22.704-34.647 3.0623-3.4744 7.9274-8.5813 13.751-1.9866 7.7116 8.7325-7.6432 20.076-14.482 28.604-3.5967 4.3553-18.647 25.191 6.5182 4.7896-7.0249 9.3129-14.185 16.434-18.117 20.203-1.9038 1.8251-13.952 13.753-14.749 7.1671-0.79678-6.5855 1.3436-16.538 4.3734-24.131z" fill="#da1c4f"/>
 </g>
</svg>
