<svg width="64" height="64" version="1.1" viewBox="0 0 16.933 16.933" xmlns="http://www.w3.org/2000/svg">
 <g transform="matrix(.26458 0 0 .26458 -.096467 0)">
  <rect x=".3646" width="64" height="64" fill="#fff" stroke-width=".30788"/>
  <path d="m47.405 39.964v-17.095l3.0797 0.38638c3.4997 0.43907 4.5386 1.0695 3.4903 2.1178-0.50934 0.50934-0.70393 4.6927-0.70393 15.134v14.43l-2.1998 0.78735c-1.2099 0.43304-2.5297 0.91027-2.933 1.0605-0.57608 0.21461-0.73326-3.3911-0.73326-16.821zm-37.248 15.686c-1.1165-3.0281-1.9502-6.6731-1.5971-6.983 0.59881-0.52554 26.562-5.3864 26.91-5.0382 0.46019 0.46019-13.71 7.1657-19.007 8.9941-2.6609 0.91855-4.8387 1.9845-4.8395 2.3687-0.0023 1.0383-1.1389 1.5485-1.4671 0.6584zm5.24-17.614c3.9067-9.4201 10.304-25.2 10.304-25.416 0-0.14852-3.8276-0.27004-8.5058-0.27004-7.1696 0-8.5058-0.13822-8.5058-0.87991 0-0.74347 1.3799-0.87991 8.8995-0.87991 7.5357 0 9.0676-0.15208 9.9961-0.99236 0.98076-0.88758 1.4804-0.91306 4.7324-0.24138 4.7269 0.97632 4.917 1.1349 3.2331 2.6962-0.78095 0.72414-5.5837 7.1575-10.673 14.296-5.0891 7.1389-9.4841 13.123-9.7667 13.297-0.2826 0.17465-0.15396-0.55014 0.28586-1.6106zm34.208-22.213c-0.56461-0.32885-1.0266-1.1301-1.0266-1.7805 0-1.5429-0.95599-3.3586-2.8211-5.3584-1.2546-1.3452-1.3353-1.6132-0.4858-1.6132 1.2655 0 4.1673 1.4446 6.6799 3.3254 3.7313 2.7931 1.5989 7.7246-2.3464 5.4267z" stroke-width=".5866"/>
 </g>
</svg>
